<svg width="467.99999999999994" height="467.99999999999994" xmlns="http://www.w3.org/2000/svg" xmlns:svg="http://www.w3.org/2000/svg">
 <title>sakura blossom - alice</title>
 <g>
  <title>Layer 1</title>
  <circle id="svg_2" r="231.09375" cy="235.00001" cx="233.99999" stroke-width="3" fill="#dda0dd" stroke="#ffffff"/>
  <g transform="rotate(-15.0698 124.514 266.612) matrix(0.761467 0.115685 -0.115685 0.761467 18.2998 95.6234)" id="svg_5" stroke="null">
   <path id="svg_6" fill="#dda0dd" stroke-width="3" d="m216.77657,142.52548c11.7818,-33.71334 -15.59883,-77.8 -23.56366,-78.66451c-11.78171,11.23779 -11.78171,11.23779 -23.56342,22.47559c-11.78181,-11.23779 -11.78181,-11.23779 -23.56367,-22.47559c-6.44841,4.52095 -35.34528,44.95116 -23.56345,80.8896c-29.97467,-18.88068 -82.39444,-11.14728 -85.71758,-4.18933c7.5644,14.16052 7.5644,14.16052 15.12868,28.32089c-14.84587,7.21513 -14.84587,7.21513 -29.69174,14.43031c2.51518,7.2467 34.74822,44.84511 72.00421,49.07051c-30.30705,25.16426 -36.17346,69.59871 -30.26264,74.76332c16.45683,-2.48621 16.45683,-2.48621 32.91363,-4.97241c2.60654,15.69708 2.60654,15.69708 5.21301,31.39398c8.00296,-0.04224 54.33927,-24.13528 67.53942,-51.73871c13.20024,40.15692 60.56332,55.05798 67.53955,51.29193c2.60655,-15.69696 2.60655,-15.69696 5.2131,-31.39386c16.4567,2.48602 16.4567,2.48602 32.69733,4.53418c2.21487,-7.71118 1.64194,-54.81494 -23.95255,-80.78958c41.9689,-5.03587 67.50983,-35.43724 65.91049,-42.92949c-14.84589,-7.21518 -14.84589,-7.21518 -29.69189,-14.43028c7.56445,-14.16052 7.56445,-14.16052 15.12881,-28.32098c-6.50055,-4.45268 -55.74319,-18.17264 -85.71767,2.93315" stroke="#ffffff"/>
   <path id="svg_7" fill="#ffffff" stroke-width="3" d="m208.92796,151.90001c9.81818,-28.09447 -12.99916,-64.83333 -19.63629,-65.55373c-9.81818,9.36477 -9.81818,9.36477 -19.63626,18.72958c-9.81824,-9.36481 -9.81824,-9.36481 -19.63629,-18.72958c-5.37376,3.76746 -29.45446,37.45926 -19.6364,67.40797c-24.97881,-15.7339 -68.66192,-9.28932 -71.43126,-3.49107c6.30378,11.80035 6.30378,11.80035 12.60733,23.60072c-12.37156,6.01262 -12.37156,6.01262 -24.74321,12.02524c2.09601,6.03897 28.95686,37.37099 60.00365,40.89214c-25.25601,20.97009 -30.14468,57.99872 -25.21887,62.30273c13.71395,-2.07184 13.71395,-2.07184 27.42786,-4.14368c2.17221,13.08099 2.17221,13.08099 4.3443,26.16168c6.6691,-0.03525 45.28268,-20.11282 56.28291,-43.11563c11.00009,33.46408 50.46921,45.88159 56.28275,42.74326c2.1722,-13.08081 2.1722,-13.08081 4.3443,-26.16162c13.71402,2.07172 13.71402,2.07172 27.24789,3.77844c1.84564,-6.42584 1.36829,-45.67889 -19.96036,-67.32451c34.97394,-4.19659 56.258,-29.53105 54.92529,-35.77455c-12.37158,-6.0127 -12.37158,-6.0127 -24.74319,-12.0253c6.30362,-11.80043 6.30362,-11.80043 12.60721,-23.60075c-5.41699,-3.71068 -46.45247,-15.14386 -71.43132,2.44421" stroke="#dda0dd"/>
   <path id="svg_8" fill="#dda0dd" fill-rule="evenodd" d="m236.3698,217.57722l-63.64479,-11.4736l-3.3645,59.95213l-3.19084,-59.76228l-58.71208,18.77568l56.48888,-24.41631l-33.9028,-50.5024l39.08429,46.82646l39.98166,-46.82646l-34.55614,50.19534l61.81633,17.23141l0,0.00002z" stroke="null"/>
   <path id="svg_9" fill="#dda0dd" fill-rule="evenodd" d="m126.40657,191.79353l41.13858,7.41626l2.1747,-38.75175l2.06264,38.6291l37.95009,-12.1362l-36.51317,15.7822l21.91394,32.64354l-25.26303,-30.26765l-25.84326,30.26765l22.3363,-32.44511l-39.95679,-11.13803z" stroke="null"/>
   <path id="svg_10" fill="#dda0dd" fill-rule="evenodd" d="m189.32112,198.77251a19.63631,18.72967 0 1 1 -39.2726,0a19.63631,18.72967 0 1 1 39.2726,0z" stroke="#ffffff"/>
   <path id="svg_11" fill="#dda0dd" fill-rule="evenodd" stroke-width="1.0000000pt" d="m139.14159,193.32234a5.98907,5.71253 0 1 1 -11.97815,0a5.98907,5.71253 0 1 1 11.97815,0z" stroke="null"/>
   <path id="svg_12" fill="#dda0dd" fill-rule="evenodd" stroke-width="1.0000000pt" d="m174.9604,160.81396a5.98907,5.71253 0 1 1 -11.97812,0a5.98907,5.71253 0 1 1 11.97812,0z" stroke="null"/>
   <path id="svg_13" fill="#dda0dd" fill-rule="evenodd" stroke-width="1.0000000pt" d="m214.86186,186.18633a5.98907,5.71253 0 1 1 -11.97818,0a5.98907,5.71253 0 1 1 11.97818,0z" stroke="null"/>
   <path id="svg_14" fill="#dda0dd" fill-rule="evenodd" stroke-width="1.0000000pt" d="m154.17906,229.00244a5.98907,5.71253 0 1 1 -11.9781,0a5.98907,5.71253 0 1 1 11.9781,0z" stroke="null"/>
   <path id="svg_15" fill="#dda0dd" fill-rule="evenodd" stroke-width="1.0000000pt" d="m200.72961,232.17392a5.98907,5.71253 0 1 1 -11.97824,0a5.98907,5.71253 0 1 1 11.97824,0z" stroke="null"/>
  </g>
  <g id="svg_16" transform="rotate(41.7762 261.617 167.612) matrix(-1.46834 0.591706 -0.573542 -1.46982 2535.76 398.847)" stroke="null">
   <path id="svg_17" fill="#dda0dd" stroke-width="1.9288" d="m1319.14087,640.7804c10.54602,-20.69073 -3.23328,-51.49738 -8.28967,-52.75238c-8.57642,6.2085 -8.57642,6.2085 -17.15259,12.41724c-6.60693,-8.27362 -6.60693,-8.27362 -13.21387,-16.54718c-4.55103,2.34796 -26.71387,25.86694 -22.27161,50.05634c-17.65955,-14.79242 -52.11389,-14.40302 -54.86487,-10.21082c3.63306,9.78717 3.63306,9.78717 7.26611,19.57434c-10.198,3.34796 -10.198,3.34796 -20.39624,6.69604c0.9856,4.88989 18.46021,31.94104 42.0957,37.92847c-21.73352,13.55884 -29.40735,41.67615 -26.05127,45.52197c10.82178,-0.15991 10.82178,-0.15991 21.64368,-0.31982c0.30383,10.34296 0.30383,10.34296 0.60791,20.68573c5.1604,0.67389 37.12854,-10.78986 48.05298,-27.41937c4.98645,27.03186 34.1991,40.78387 39.02429,38.96863c3.05518,-9.88599 3.05518,-9.88599 6.11011,-19.77185c10.38611,3.04395 10.38611,3.04395 20.67126,5.78693c2.10291,-4.7746 5.86145,-35.17609 -8.35425,-54.15582c27.48413,0.43286 46.60559,-16.91797 46.23157,-21.88586c-8.93372,-5.94995 -8.93372,-5.94995 -17.86743,-11.89996c6.11511,-8.46161 6.11511,-8.46161 12.2301,-16.92285c-3.79846,-3.43878 -34.32581,-16.59448 -55.48938,-5.62158" stroke="#ffffff"/>
   <path id="svg_18" fill="#ffffff" stroke-width="3" d="m1313.26221,646.13312c8.78821,-17.24231 -2.6947,-42.91455 -6.90833,-43.96027c-7.14697,5.17371 -7.14697,5.17371 -14.2937,10.34747c-5.50586,-6.89453 -5.50586,-6.89453 -11.01147,-13.78906c-3.79272,1.9566 -22.26172,21.5556 -18.55994,41.71356c-14.71631,-12.32715 -43.4281,-12.00262 -45.7207,-8.50897c3.02771,8.15576 3.02771,8.15576 6.05542,16.31177c-8.49854,2.7901 -8.49854,2.7901 -16.99695,5.58008c0.82129,4.07501 15.38342,26.61768 35.07971,31.60724c-18.11133,11.29877 -24.5061,34.7298 -21.70947,37.93475c9.01819,-0.13318 9.01819,-0.13318 18.03625,-0.26636c0.25342,8.61902 0.25342,8.61902 0.50659,17.23798c4.30042,0.56171 30.94055,-8.99158 40.04443,-22.84937c4.1554,22.52643 28.49915,33.98651 32.52002,32.47363c2.5459,-8.23816 2.5459,-8.23816 5.09192,-16.4765c8.65491,2.53674 8.65491,2.53674 17.22607,4.82251c1.75232,-3.97876 4.88464,-29.31335 -6.96179,-45.12976c22.90332,0.36078 38.83777,-14.09851 38.52612,-18.23828c-7.44482,-4.95837 -7.44482,-4.95837 -14.8894,-9.91681c5.09595,-7.05103 5.09595,-7.05103 10.19165,-14.10236c-3.16528,-2.86566 -28.60474,-13.82861 -46.24097,-4.68463" stroke="#dda0dd"/>
   <path id="svg_19" fill="#dda0dd" fill-rule="evenodd" d="m1325.18884,690.85693l-40.00403,-12.97028l-7.42175,38.33539l3.18115,-38.78754l-39.47656,6.953l38.53833,-10.78235l-17.41956,-35.51221l21.08032,33.59772l29.8656,-26.66901l-26.66479,29.31519l38.32129,16.52008z" stroke="null"/>
   <path id="svg_20" fill="#dda0dd" fill-rule="evenodd" d="m1256.59338,664.60699l25.85779,8.38373l4.79724,-24.77917l-2.05615,25.07159l25.5166,-4.49445l-24.91016,6.96954l11.25977,22.95428l-13.62598,-21.7168l-19.30444,17.23828l17.2356,-18.94867l-24.77026,-10.67834z" stroke="null"/>
   <path id="svg_21" fill="#dda0dd" fill-rule="evenodd" d="m1296.521,674.61719a12.65266,12.06847 0 1 1 -25.30542,-3.44147a12.65266,12.06847 0 1 1 25.30542,3.44147z" stroke="#ffffff"/>
   <path id="svg_22" fill="#dda0dd" fill-rule="evenodd" stroke-width="1.0000000pt" d="m1264.66541,666.70813a3.85906,3.68087 0 1 1 -7.71814,-1.04974a3.85906,3.68087 0 1 1 7.71814,1.04974z" stroke="null"/>
   <path id="svg_23" fill="#dda0dd" fill-rule="evenodd" stroke-width="1.0000000pt" d="m1290.59399,648.90002a3.85906,3.68087 0 1 1 -7.71802,-1.04962a3.85906,3.68087 0 1 1 7.71802,1.04962z" stroke="null"/>
   <path id="svg_24" fill="#dda0dd" fill-rule="evenodd" stroke-width="1.0000000pt" d="m1314.08093,668.74554a3.85906,3.68087 0 1 1 -7.71802,-1.04974a3.85906,3.68087 0 1 1 7.71802,1.04974z" stroke="null"/>
   <path id="svg_25" fill="#dda0dd" fill-rule="evenodd" stroke-width="1.0000000pt" d="m1271.22803,691.01636a3.85906,3.68087 0 1 1 -7.71802,-1.04974a3.85906,3.68087 0 1 1 7.71802,1.04974z" stroke="null"/>
   <path id="svg_26" fill="#dda0dd" fill-rule="evenodd" stroke-width="1.0000000pt" d="m1300.94495,697.13916a3.85906,3.68087 0 1 1 -7.71826,-1.04974a3.85906,3.68087 0 1 1 7.71826,1.04974z" stroke="null"/>
  </g>
  <g transform="rotate(-149.092 306.549 354.853) matrix(-0.95134 1.27286 -1.26621 -0.95915 624.403 163.351)" id="svg_27" stroke="null">
   <path id="svg_28" fill="#dda0dd" stroke-width="1.9288" d="m234.84874,66.60096c4.50499,-12.89102 -5.96451,-29.74844 -9.01004,-30.07904c-4.50496,4.29703 -4.50496,4.29703 -9.00993,8.59406c-4.50504,-4.29703 -4.50504,-4.29703 -9.01007,-8.59406c-2.46568,1.7287 -13.51498,17.18802 -9.00998,30.92981c-11.46143,-7.21939 -31.50519,-4.26233 -32.77585,-1.60187c2.89241,5.41458 2.89241,5.41458 5.78477,10.82906c-5.67665,2.75891 -5.67665,2.75891 -11.35327,5.5177c0.96173,2.77094 13.2867,17.1475 27.53229,18.76312c-11.58852,9.62214 -13.83167,26.61252 -11.57155,28.5873c6.2926,-0.95061 6.2926,-0.95061 12.58519,-1.90131c0.99666,6.00214 0.99666,6.00214 1.99333,12.00414c3.06009,-0.01617 20.77774,-9.22862 25.82512,-19.7833c5.04735,15.35477 23.15758,21.05253 25.82509,19.61246c0.99664,-6.00206 0.99664,-6.00206 1.99335,-12.00407c6.29256,0.95056 6.29256,0.95056 12.50253,1.73376c0.84686,-2.94855 0.62781,-20.95963 -9.15877,-30.89158c16.04771,-1.9256 25.8138,-13.55016 25.20219,-16.41501c-5.67657,-2.75882 -5.67657,-2.75882 -11.35327,-5.51764c2.89243,-5.4146 2.89243,-5.4146 5.78482,-10.82912c-2.48569,-1.70258 -21.31458,-6.9487 -32.77594,1.12152" stroke="#ffffff"/>
   <path id="svg_29" fill="#ffffff" stroke-width="3" d="m231.84767,70.18546c3.75418,-10.74249 -4.97049,-24.79031 -7.50832,-25.0658c-3.75421,3.58084 -3.75421,3.58084 -7.50833,7.16165c-3.75421,-3.58081 -3.75421,-3.58081 -7.50836,-7.16165c-2.05475,1.44055 -11.26251,14.3233 -7.50836,25.77481c-9.55118,-6.01617 -26.2543,-3.55197 -27.3132,-1.33487c2.41037,4.51211 2.41037,4.51211 4.82069,9.02419c-4.73056,2.29911 -4.73056,2.29911 -9.46109,4.59808c0.80144,2.30914 11.07224,14.28959 22.94362,15.63599c-9.65717,8.01839 -11.52643,22.177 -9.64296,23.82275c5.24384,-0.79222 5.24384,-0.79222 10.48761,-1.58447c0.83057,5.00183 0.83057,5.00183 1.66112,10.00348c2.55008,-0.01349 17.31477,-7.69054 21.52095,-16.48616c4.20612,12.79565 19.29793,17.54376 21.52086,16.34375c0.8306,-5.00169 0.8306,-5.00169 1.66113,-10.00342c5.24379,0.79218 5.24379,0.79218 10.41878,1.44476c0.70572,-2.45703 0.52322,-17.46627 -7.63225,-25.74291c13.37299,-1.60468 21.51141,-11.29179 21.0018,-13.67912c-4.73053,-2.29906 -4.73053,-2.29906 -9.46106,-4.59814c2.41037,-4.51214 2.41037,-4.51214 4.82065,-9.02419c-2.07129,-1.41885 -17.76208,-5.79062 -27.31326,0.9346" stroke="#dda0dd"/>
   <path id="svg_30" fill="#dda0dd" fill-rule="evenodd" d="m242.34062,95.2985l-24.33586,-4.38715l-1.28647,22.92395l-1.22012,-22.85141l-22.44977,7.17932l21.59967,-9.33611l-12.96341,-19.31062l14.9447,17.90506l15.28777,-17.90506l-13.21324,19.1932l23.63673,6.58881z" stroke="null"/>
   <path id="svg_31" fill="#dda0dd" fill-rule="evenodd" d="m200.29393,85.43958l15.73018,2.83575l0.83156,-14.8175l0.78868,14.77059l14.51097,-4.6405l-13.96152,6.0346l8.37923,12.482l-9.65985,-11.57349l-9.8817,11.57349l8.54074,-12.40607l-15.27827,-4.25887l-0.00002,0z" stroke="null"/>
   <path id="svg_32" fill="#dda0dd" fill-rule="evenodd" d="m224.3506,88.10809a7.50834,7.16167 0 1 1 -15.01668,0a7.50834,7.16167 0 1 1 15.01668,0z" stroke="#ffffff"/>
   <path id="svg_33" fill="#dda0dd" fill-rule="evenodd" stroke-width="1.0000000pt" d="m205.16342,86.02417a2.29004,2.1843 0 1 1 -4.58008,0a2.29004,2.1843 0 1 1 4.58008,0z" stroke="null"/>
   <path id="svg_34" fill="#dda0dd" fill-rule="evenodd" stroke-width="1.0000000pt" d="m218.8595,73.59388a2.29004,2.1843 0 1 1 -4.58008,0a2.29004,2.1843 0 1 1 4.58008,0z" stroke="null"/>
   <path id="svg_35" fill="#dda0dd" fill-rule="evenodd" stroke-width="1.0000000pt" d="m234.11659,83.29556a2.29004,2.1843 0 1 1 -4.58008,0a2.29004,2.1843 0 1 1 4.58008,0z" stroke="null"/>
   <path id="svg_36" fill="#dda0dd" fill-rule="evenodd" stroke-width="1.0000000pt" d="m210.91333,99.66715a2.29004,2.1843 0 1 1 -4.58011,0a2.29004,2.1843 0 1 1 4.58011,0z" stroke="null"/>
   <path id="svg_37" fill="#dda0dd" fill-rule="evenodd" stroke-width="1.0000000pt" d="m228.71288,100.87982a2.29004,2.1843 0 1 1 -4.58012,0a2.29004,2.1843 0 1 1 4.58012,0z" stroke="null"/>
  </g>
 </g>
</svg>